<svg width="41" height="38" viewBox="0 0 41 38" fill="none" xmlns="http://www.w3.org/2000/svg">
<path opacity="0.5" d="M40.0652 0.256714L30.2601 34.9917C30.2103 35.1494 30.0109 35.1967 29.8945 35.0863L23.3301 28.8583L28.2493 11.4514C28.2991 11.2937 28.1496 11.1518 27.9834 11.1991L9.63621 15.8662L3.10503 9.66969C2.98869 9.55932 3.03855 9.37011 3.20474 9.32281L39.7993 0.00444022C39.9655 -0.027094 40.1151 0.11481 40.0652 0.256714Z" fill="#00B37E"/>
<path opacity="0.5" d="M23.3297 28.858L20.8037 37.8453C20.7538 38.0029 20.5544 38.0502 20.4381 37.9399L0.0634003 18.6251C-0.0529313 18.5148 -0.00307518 18.3255 0.163113 18.2782L9.63583 15.8659L23.3297 28.858Z" fill="#00B37E"/>
<path d="M28.2484 11.451L23.3293 28.8579L9.63538 15.8658L27.9825 11.1988C28.1487 11.1515 28.2983 11.2934 28.2484 11.451Z" fill="#00B37E"/>
</svg>
